# xmcd CD database file
#
# Track frame offsets:
#	150
#	22850
#	41125
#	62917
#	83290
#	98840
#	123255
#	139187
#	160132
#	176152
#	188720
#	204290
#	222862
#	243850
#
# Disc length: 3491 seconds
#
# Revision: 10
# Processed by: cddbd v1.5.2PL0 Copyright (c) Steve Scherf et al.
# Submitted via: CDex 1.79
#
DISCID=b30da10e
DTITLE=Kenny Chesney - When The Sun Goes Down
DYEAR=2003
DGENRE=Country
TTITLE0=There Goes My Life
TTITLE1=I Go Back
TTITLE2=When The Sun Goes Down (featuring Uncle Kracker)
TTITLE3=The Woman With You
TTITLE4=Some People Change
TTITLE5=Anything But Mine
TTITLE6=Keg In The Closet
TTITLE7=When I Think About Leaving
TTITLE8=Being Drunk's A Lot Like Loving You
TTITLE9=Outta Here
TTITLE10=Old Blue Chair
TTITLE11=Live Those Songs (Live)
TTITLE12=What I Need To Do (Live)
TTITLE13=Please Come To Boston (Live)
EXTD=YEAR: 2003
EXTT0=
EXTT1=
EXTT2=
EXTT3=
EXTT4=
EXTT5=
EXTT6=
EXTT7=
EXTT8=
EXTT9=
EXTT10=
EXTT11=
EXTT12=
EXTT13=
PLAYORDER=
